<svg id="Layer_1" data-name="Layer 1" xmlns="http://www.w3.org/2000/svg" viewBox="0 0 633.5 650.87"><path d="M258.54,621.73C208,591,210.9,488.47,272.58,462.34c16.47,28,40.89,44.12,73.57,52.42,12.19,3.09,24.19,22.67,28.37,37,4,13.6,4.74,22.92,21.59,22.32,7.17-.25,14.7,2.76,21.65,5.39,6.18,2.34,11.8,6.2,17.66,9.39-5.12,3.93-9.67,9.66-15.45,11.48-26.41,8.29-27.86,29.64-25.28,50.75,2.11,17.22-4,26.24-15.94,38.12-15.44,15.39-25.06,36.63-38.29,57-65.16-1.89-94.91-100-48.32-140.32,6.12-4.71,19.14-.77,29-.24,7.65.41,15.25,1.71,22.87,2.61-3.21-6.58-7.1-12.92-9.48-19.79-6.35-18.71-11.43-37.86-17.41-56.71-4.42,2.43-10.79,3.74-12.94,7.47C288.49,566.47,273.69,594.11,258.54,621.73Z" transform="translate(-223.25 -214.56)" style="fill:#5f44f6"/><path d="M740.93,332.6a70.25,70.25,0,0,1,38.76,18.9,91.52,91.52,0,0,1,23.74,37.8c10.53,31.59,4,63.9-16.92,84.5-3.6-1.25-7.09-2.55-10.46-3.81-8.68-3.23-16.88-6.29-25.37-7.83a6,6,0,0,0-1-.09c-3.26,0-6.82,2.58-10.26,5.07a54.31,54.31,0,0,1-4.91,3.31l-1.05.58.76.93a44.09,44.09,0,0,1,3,4.26c2.22,3.47,4.52,7.06,7.62,7.65,12,2.27,20,6.64,24.52,13.35s5.51,16.18,2.9,28.58c-.72,3.43,2,7.35,4.71,11.15a50.71,50.71,0,0,1,3.21,4.92l.66,1.22,1-1c1.24-1.32,2.69-2.6,4.09-3.84,3.17-2.81,6.44-5.71,7.93-9.41,6.69-16.68,12.73-33.33,19.12-51,2.14-5.9,4.35-12,6.59-18.09,12.63,8.05,22.6,20.66,28.89,36.56a112.59,112.59,0,0,1,7.1,49.51c-2.38,31.73-16.66,56.91-37.31,65.87-9.78-5.27-18.91-10.22-27.75-15-20-10.82-37.18-20.17-54.93-29.45-8.54-4.47-17.26-9.58-23.22-16.73-6.22-7.45-8.73-16.41-7.69-27.4,1.36-14.23.78-28.43,0-42.93-.46-8.8-2.35-15-5.61-18.49-19.35-20.6-18.78-47,1.48-68.89,10.69-11.55,19.05-25.34,27.89-39.93,4-6.6,8.13-13.42,12.64-20.31m-.49-1.07c-14.7,22.36-25.22,43.83-40.77,60.63-19.84,21.44-22,48.42-1.48,70.25,3.84,4.09,5,11.75,5.35,17.87.75,14.23,1.34,28.63,0,42.78-2.34,24.55,13,35.44,31.44,45.11,25.81,13.5,51.33,27.56,83.09,44.68,48.41-20.38,54.36-121.89.85-154.55-8.9,24.23-17,47.41-26.12,70.17-2,5.07-7.78,8.66-11.82,12.93-2.78-5.17-8.74-11-7.82-15.39,5.15-24.54-3.26-38.4-28.21-43.12-3.92-.74-6.69-7.56-10-11.57,4.89-2.74,10.28-8.25,14.68-8.25a4.11,4.11,0,0,1,.86.08c11.87,2.14,23.19,7.31,36.26,11.79,46.86-45.22,15.73-135.68-46.32-143.41Z" transform="translate(-223.25 -214.56)" style="fill:#5f44f6"/><path d="M604.86,416.94l-17.57,19.72-14.68-26.23-13.26,32.45c-4.62-10.18-9-15.27-8.88-20.3.67-52.32.33-104.74,3.8-156.9,2.62-39.23,22.21-53.22,61-50.38,61.75,4.53,107.39,62.05,92.81,122.06-4.18,17.21-19.45,38.5-34.63,43.9C663,385,641.81,366.75,629.33,354.38c-13-12.89-33.49-25.51-20.57-50.54,41.7-11.58,43.44-14.41,28.24-60.07-4.29,17.45-6.88,28-9.91,40.32-29-4.85-38.17,9-35.11,37,.78,7.05-10.5,14.68-12.67,23-3.29,12.52-8.85,29.33-3.38,37.85,5.17,8.05,25.29,13.39,35.34,9.88,18.13-6.32,31.94-2.63,39.24,11.36s8.59,31.58,10.87,47.81c.22,1.55-14.48,8.47-16.63,6.56C630.52,444.88,617.84,430.52,604.86,416.94Z" transform="translate(-223.25 -214.56)" style="fill:#5f44f6"/><path d="M524.48,644.13c1.28,5,3.69,10,3.65,14.92-.39,49.49.38,99.05-2.31,148.43-2.67,49-25.65,64.77-74.43,55.37-58.18-11.2-98.3-73.13-79.05-126.64,5.54-15.38,20.17-34.08,34.15-37.73,11.18-2.91,31,11.88,41.22,23.78C475,754,473.72,755.09,471,779.2l-33.25,3.94v45.33l6.62.72L452.18,797l23.87-3.23c11.63-25,23.42-46.25,31-68.88,3-8.89-.2-24-6.5-30.7s-22.85-11.73-29.88-8c-21.35,11.33-35.07,3.37-46-12.93-12.93-19.36-12.82-39.73,1.52-62.83,17.46,19.58,32.6,36.54,47.45,53.18l16.25-19.79,17.54,24.53c3.68-9,6.92-16.89,10.16-24.79Z" transform="translate(-223.25 -214.56)" style="fill:#5f44f6"/><path d="M443.72,303.24c-.77,13.54,1.21,28-3,40.36-4.74,13.75-12.88,28.78-24.15,36.64-4.75,3.31-24.23-7.79-31.94-16.72-23.67-27.41-19.24-78.67,7.15-111.14,25.55-31.43,77-47.19,107.74-31.94,7.19,3.56,15.84,10.11,17.95,17.06,20,65.53,7.57,132,11,198.13l-9.7,1.57c-3.68-8.24-7.35-16.48-12.2-27.37-3.14,5.78-4.51,9.15-6.6,12-3.79,5.17-8,10-12,15-3-6-7.07-11.69-8.71-18C469.27,380.63,460,342.3,450.44,304Z" transform="translate(-223.25 -214.56)" style="fill:#5f44f6"/><path d="M589,803.17h71.43c-3.72-21,15.28-47.14-19.17-59.69-2.7-1-2.65-23.77,3.09-30,7-7.67,27.64-15,31.49-11.29,13.5,13.08,28.23,29.76,31.85,47.28C721.25,814.79,660.11,876,594.39,863.16,580.63,860.47,560,844.29,559,832.91c-5.28-61.29-5.41-123-7-184.62,0-1.48,3.92-3,8.38-6.31l12.41,29.15c6.11-18.31,4.08-17,17.64-27.47,3.19,3.76,8.17,7,9.3,11.34,8.42,32.11,15.89,64.46,24.2,96.6,1,3.93,5.12,7.1,7.92,10.51,6.28,7.63,12.63,15.19,23.75,28.55l-66.86,4.27C588.88,797.68,589,800.42,589,803.17Z" transform="translate(-223.25 -214.56)" style="fill:#5f44f6"/><path d="M661.43,587.3v1a33.74,33.74,0,0,1,5,.34c1.07.16,2.3,2.65,3.29,4.65,1.4,2.83,2.73,5.5,4.88,5.94,2.72.56,5.55,1.26,8.53,2,6.94,1.73,14.1,3.51,20.46,3.51a21,21,0,0,0,9.66-2c10.52-5.34,19.85-7.94,28.51-7.94,15,0,27.56,7.93,38.44,24.24,13.31,20,16.36,44.88,8.38,68.37a88.64,88.64,0,0,1-21.15,33.82,93.72,93.72,0,0,1-35.59,22.26c-9.3-37.74-32.3-61.92-70.28-73.9-9.47-3-19.13-22.51-19.43-34.9-.16-6.61,6.58-13.74,13.09-20.64a117.21,117.21,0,0,0,8.35-9.46l.6-.79-.79-.6-12.61-9.63-5-3.8c1.44-.16,2.88-.34,4.29-.52a93.1,93.1,0,0,1,11.35-1v-1m0,0c-6,0-12.19,1.23-18.27,1.73l19.6,15c-7.66,10.13-21.88,20.6-21.64,30.73.3,12.55,10.11,32.67,20.13,35.83,38.36,12.09,60.87,36.45,69.86,74.25,56-19,79.69-81.64,49.91-126.32-11.29-16.94-24.33-24.68-39.27-24.68-9,0-18.6,2.79-29,8a20.2,20.2,0,0,1-9.21,1.89c-8.91,0-19.65-3.63-28.79-5.49-3.33-.68-5-10.13-8.22-10.6a35.23,35.23,0,0,0-5.14-.35Z" transform="translate(-223.25 -214.56)" style="fill:#5f44f6"/><path d="M346.52,330.08c11.21,42.49,32,67.05,69.69,79,10.87,3.46,20.34,23.72,22.47,37.51,1.24,8-13.46,18.42-22.72,29.88,3,1.86,14.64,9.86,19.74,13.3-2.39,3.44-6,10.16-7,9.79-6.29-2.32-13.88-4.81-17.59-9.81-15.58-21-31.18-24.17-52.63-7-6.68,5.36-21.55,5.87-30.25,2.45-47.7-18.73-57.92-86.28-19.39-126.86C318.27,348.46,330.93,341.61,346.52,330.08Z" transform="translate(-223.25 -214.56)" style="fill:#5f44f6"/><path d="M689.82,469.94c-1.75,11.57-.91,22.33-.1,32.74,1.46,18.88,2.73,35.18-12.64,49.26-5,4.53-11.89,7.22-18.6,9.81-2.58,1-5.23,2-7.78,3.16.13-1.44.22-2.91.3-4.33.27-4.69.55-9.53,2.53-13.24.85-1.57,4.66-2.12,8.7-2.7,2.23-.32,4.76-.68,7.18-1.27l2.1-.51-1.75-1.27-10.85-7.91-14.12-10.31,20.32-15.24.95-.71-.87-.82L645.3,488l23.4-9.51,21.12-8.59m1.28-1.6L643.47,487.7l21,19.63-21.4,16.06,26.06,19c-7.11,1.72-14.89,1.44-16.52,4.47-3,5.53-2.29,13-3.13,19.68,9.52-4.51,20.81-7.08,28.23-13.87,24.63-22.56,7.53-50.76,13.35-84.34Z" transform="translate(-223.25 -214.56)" style="fill:#5f44f6"/><path d="M433.86,557H392c-9.4-25.3,13.15-31.89,25.83-43.09,2.44-2.15,11.08,2.73,16.86,4.37-3.36,5.26-6,11.23-10.36,15.51-2.66,2.63-7.88,2.66-18.15,5.67L435,550.48Z" transform="translate(-223.25 -214.56)" style="fill:#5f44f6"/><path d="M511.77,597.16c0,3.06,0,6.13,0,9.19,0,3.58-1.23,4.76-4.88,4.77-4.68,0-9.36-.06-14,.07a6.63,6.63,0,0,0-3.26,1.14c-2,1.27-4,1.28-5.42-.26-2.94-3.48,1.56-8.77,5.62-6.22a8.47,8.47,0,0,0,3.7,1.24c4,.15,8-.06,11.95.09,2.08.08,2.63-.71,2.59-2.66-.11-5.74,0-11.49-.12-17.24,0-1.48.26-2.31,2-2.31s2,.84,2,2.3c-.08,3.3,0,6.59,0,9.89Zm-25.18,15.45c1.06-1.33,2.17-2.12,2.08-2.74a3.21,3.21,0,0,0-1.83-2.23,1.64,1.64,0,0,0-2.06,2C484.89,610.45,485.68,611.18,486.59,612.61Z" transform="translate(-223.25 -214.56)" style="fill:none;stroke:#5f44f6;stroke-miterlimit:10"/><path d="M482.59,549.27c3.22,0,6.44.06,9.65,0,1.57,0,2.21.45,2.2,2.08s-.73,1.89-2.12,1.88c-5.9-.05-11.8,0-17.69-.06-1.73,0-2.28.58-2.25,2.25.07,4.36,0,8.73.06,13.09a5.13,5.13,0,0,0,1,2.64c1.38,2,1.33,4-.33,5.57-3.81,3.36-9.07-1.05-5.58-5.43a5.42,5.42,0,0,0,.93-2.9c.1-4.82,0-9.65.07-14.47,0-3.27,1.34-4.54,4.65-4.58,3.14,0,6.28,0,9.42,0ZM470,576.51l.93,0c.54-.78,1.64-1.7,1.49-2.3-.24-1-1.32-1.74-2-2.6-.72.72-2,1.43-2,2.14C468.4,574.66,469.44,575.58,470,576.51Z" transform="translate(-223.25 -214.56)" style="fill:none;stroke:#5f44f6;stroke-miterlimit:10"/><path d="M596.51,549.31c3.14,0,6.28,0,9.42,0s4.33,1.38,4.37,4.38c.05,4.75-.06,9.5.09,14.24a7.79,7.79,0,0,0,1.26,3.69c2.78,4.15-2.1,8.25-5.79,5.19-1.58-1.37-2.13-3.7-.79-5.12s1.39-2.94,1.38-4.64c0-3.83-.1-7.66,0-11.48.06-1.94-.66-2.48-2.53-2.44-5.74.1-11.49,0-17.23.06-1.41,0-2.34-.14-2.32-1.93s.73-2.07,2.25-2c3.29.09,6.58,0,9.88,0Zm13.24,27.49c.48-.71,1.59-1.64,1.75-2.71.23-1.55-1-2.52-2.57-2.5a2.28,2.28,0,0,0-2.45,2.45C606.45,575.66,607.38,576.54,609.75,576.8Z" transform="translate(-223.25 -214.56)" style="fill:none;stroke:#5f44f6;stroke-miterlimit:10"/><path d="M567,597c0-3.37.07-6.74,0-10.11-.05-1.64.79-1.9,2.13-1.9s1.83.62,1.81,2c-.08,5.9,0,11.8-.12,17.7,0,1.89.59,2.56,2.51,2.51,4.21-.12,8.43,0,12.64-.09a5.74,5.74,0,0,0,2.86-1,4.06,4.06,0,0,1,5.58.5c3.37,3.87-1,8.91-5.27,5.67a6,6,0,0,0-3.07-1c-4.82-.12-9.65,0-14.48-.07-3.19,0-4.47-1.3-4.5-4.46s0-6.44,0-9.66Zm27.83,13.37c-.33-2.42-1.23-3.42-3-3.32a2.41,2.41,0,0,0-2.44,2.71c.06,1.72,1.17,2.83,2.79,2.51C593.29,612.06,594.16,610.89,594.83,610.37Z" transform="translate(-223.25 -214.56)" style="fill:none;stroke:#5f44f6;stroke-miterlimit:10"/><path d="M511.77,483.21c0,3.14,0,6.28,0,9.42,0,1.37-.06,2.38-1.89,2.35s-1.84-1.14-1.84-2.45c0-5.67-.07-11.34,0-17,0-2-.63-2.68-2.65-2.6-3.59.14-7.2,0-10.8,0-1.89,0-3.67-.09-5.32,1.43-1.44,1.34-3.74.64-5.06-1-2.92-3.83,1.17-8.53,5.32-5.57a6.33,6.33,0,0,0,3.07,1.09c4.83.12,9.66,0,14.48.08,3.36,0,4.56,1.25,4.59,4.59s0,6.44,0,9.66Zm-22-11.91,0-1c-.77-.49-1.72-1.52-2.28-1.35-1,.3-1.7,1.36-2.52,2.11.63.69,1.37,2,1.89,1.95C487.91,472.85,488.83,471.92,489.81,471.3Z" transform="translate(-223.25 -214.56)" style="fill:none;stroke:#5f44f6;stroke-miterlimit:10"/><path d="M567.1,483c0-3.14,0-6.28,0-9.42,0-3.34,1.23-4.54,4.61-4.57,4.82,0,9.65,0,14.48-.08a6.34,6.34,0,0,0,3.07-1.1c1.86-1.22,3.86-1.27,5.23.12,3.15,3.43-1.28,9.12-5.46,6.33a7.57,7.57,0,0,0-3.48-1.21c-4.21-.15-8.43,0-12.64-.08-1.61,0-2.16.58-2.14,2.14,0,5.82,0,11.65,0,17.47,0,1.34,0,2.4-1.87,2.43s-1.88-1-1.86-2.37c0-3.22,0-6.44,0-9.66Zm24.37-10.25,1.09.05c.62-.85,1.74-1.71,1.71-2.53a2.85,2.85,0,0,0-2.09-1.92c-.73,0-1.9,1.14-2.08,1.95S591,471.87,591.47,472.7Z" transform="translate(-223.25 -214.56)" style="fill:none;stroke:#5f44f6;stroke-miterlimit:10"/><path d="M597.44,579.44c0,1.84,0,3.68,0,5.52s0,3.84,1.47,5.55a3.51,3.51,0,0,1-.67,4.94c-3.37,2.92-8.7-2-6-5.45,1.36-1.51,1.38-3.12,1.36-4.88,0-3.83-.09-7.66,0-11.49,0-1.58-.51-2.21-2.13-2.1s-3.52,0-5.28.05c-1.55.08-1.74-.78-1.75-2s.34-2,1.82-2c2.45.09,4.91,0,7.35.07s3.77,1.47,3.85,4S597.43,576.84,597.44,579.44Zm1,13.77.06-1.06c-2.58-2.15-2.48-2-4.65.42C595.88,595.12,595.85,594.92,598.46,593.21Z" transform="translate(-223.25 -214.56)" style="fill:none;stroke:#5f44f6;stroke-miterlimit:10"/><path d="M552.21,599.73c0,3.37,0,6.74,0,10.11,0,2.06,0,4,1.28,5.89,2.45,3.6-2.61,8.06-5.77,5-1.49-1.29-2-3.93-.69-5.42,1.5-1.66,1.42-3.44,1.41-5.34,0-7.43,0-14.86-.1-22.29,0-1.48-.06-2.74,2-2.72s1.9,1.24,1.89,2.6c0,4.06,0,8.12,0,12.18Zm.61,18.25,0-1c-2.7-2.08-2.64-1.86-4.95.47C550.07,620.14,550,619.85,552.82,618Z" transform="translate(-223.25 -214.56)" style="fill:none;stroke:#5f44f6;stroke-miterlimit:10"/><path d="M485.24,580.33c-.1,3.2-.28,6.55,1.36,9.43,2.37,4-2.6,8.74-6.19,5.51-1.48-1.41-1.43-3.42-.16-5.43a6.85,6.85,0,0,0,1.09-3.31c.11-4.75,0-9.49.05-14.24,0-3.31,1.31-4.58,4.59-4.63,2.22,0,4.44,0,6.66,0,1.52-.06,1.77.76,1.79,2s-.28,2-1.79,2c-1.76-.09-3.53.07-5.29-.05s-2.14.6-2.08,2.14c.07,2.22,0,4.44,0,6.66Zm-3,15.24,1.13,0c.68-1,1.76-1.92,2-3,.25-1.42-.84-2.44-2.35-2.5s-2.82.92-2.63,2.46C480.43,593.62,481.53,594.57,482.2,595.57Z" transform="translate(-223.25 -214.56)" style="fill:none;stroke:#5f44f6;stroke-miterlimit:10"/><path d="M481.45,500.74c0-1.92,0-3.83,0-5.74s0-3.68-1.47-5.31a3.53,3.53,0,0,1,.58-5c3.41-3,8.65,2,6,5.37-1.38,1.49-1.39,3.09-1.37,4.85,0,3.83.1,7.65.05,11.47,0,1.55.48,2.26,2.11,2.17s3.52,0,5.27,0c1.53-.06,1.75.83,1.76,2s-.35,1.88-1.7,1.85c-2.52-.06-5.05,0-7.57-.07-2.33-.09-3.58-1.43-3.64-3.84C481.4,505.94,481.45,503.34,481.45,500.74Zm1.79-16.42-1.09,0c-.67,1-1.77,2-1.91,3.07-.21,1.56,1,2.51,2.62,2.48s2.77-1.08,2.47-2.62C485.13,486.2,484,485.3,483.24,484.32Z" transform="translate(-223.25 -214.56)" style="fill:none;stroke:#5f44f6;stroke-miterlimit:10"/><path d="M597.38,500.63c0,2.6,0,5.2,0,7.8s-1.34,3.9-4,4c-2.37.07-4.74,0-7.11.05-1.47,0-1.82-.68-1.81-2s.45-2,1.88-1.92c1.61.08,3.22-.05,4.82,0s2.5-.39,2.46-2.29c-.1-4.36.06-8.72,0-13.08a4.63,4.63,0,0,0-.91-2.44c-3.2-4,1.83-9.23,5.66-6,1.56,1.46,1.51,3.51.1,5.6a6,6,0,0,0-1,2.88C597.28,495.73,597.38,498.18,597.38,500.63Zm-1.3-10.52c3.52-.15,3.58-5.43,0-5.42C592.39,484.54,592.42,490,596.08,490.11Z" transform="translate(-223.25 -214.56)" style="fill:none;stroke:#5f44f6;stroke-miterlimit:10"/><path d="M548.53,480.3c0-3.14,0-6.28,0-9.42,0-2.17.26-4.29-1.52-6.2-1.32-1.41-.65-4.21.85-5.4,3.63-2.86,7.47,1.41,5.61,5.36a14,14,0,0,0-1.25,4.89c-.12,7.65,0,15.31,0,23,0,1.24.21,2.46-1.73,2.49s-2-1.08-2-2.52c0-4,0-8.11,0-12.16Zm4.72-17.79,0-1.12c-1-.7-1.89-1.79-3-2-1.55-.29-2.59.81-2.63,2.43s.95,2.79,2.51,2.57C551.28,464.24,552.24,463.17,553.25,462.51Z" transform="translate(-223.25 -214.56)" style="fill:none;stroke:#5f44f6;stroke-miterlimit:10"/><path d="M595.55,527.2c4.12,0,8.37.43,12.23-1.3s8.05,2.41,5,5.85c-1.28,1.49-3.7,2-5.17.74-1.64-1.44-3.4-1.42-5.31-1.41-5.11,0-10.23,0-15.35,0-1.36,0-2.55.14-2.56-1.89s1.22-2.06,2.68-2c2.83,0,5.65,0,8.48,0Zm17.29,2.11c-1.51-1.11-2.39-2.24-3.24-2.23s-2.05,1.48-1.94,2.11a3.55,3.55,0,0,0,2.14,2.33C610.37,531.69,611.36,530.44,612.84,529.31Z" transform="translate(-223.25 -214.56)" style="fill:none;stroke:#5f44f6;stroke-miterlimit:10"/><path d="M483.36,531.09h-6.65c-1.9,0-3.67-.07-5.31,1.41-1.44,1.3-3.9.75-5.17-.75-3-3.46,1.09-7.67,5-5.82a14.41,14.41,0,0,0,4.91,1.22c5.35.15,10.7.09,16.05,0,1.57,0,2.2.46,2.19,2.08s-.71,1.92-2.11,1.88C489.33,531,486.34,531.09,483.36,531.09Zm-11.93-1.87c0-3.55-5.39-3.69-5.41-.16C465.79,532.58,471.25,532.78,471.43,529.22Z" transform="translate(-223.25 -214.56)" style="fill:none;stroke:#5f44f6;stroke-miterlimit:10"/><path d="M530.24,593c0,3-.38,6.14,1.09,8.85,2.38,4.07-2,8.75-5.71,5.58-1.62-1.43-1.58-3.77-.26-5.83a6.78,6.78,0,0,0,1.09-3.3c.12-3.74.06-7.48,0-11.22,0-1.43.4-2.13,1.93-2.13s2,.64,1.95,2.1c-.09,2,0,4,0,5.95Zm.6,11c-.71-.48-1.65-1.6-2.73-1.74-1.63-.22-2.67,1-2.62,2.68a2.4,2.4,0,0,0,2.61,2.55C529.82,607.5,530.66,606.44,530.84,604Z" transform="translate(-223.25 -214.56)" style="fill:none;stroke:#5f44f6;stroke-miterlimit:10"/><path d="M526.55,486.9c.16-3,.13-6.06-1.4-8.71-2.31-3.74,1.39-8.49,5.25-5.79a4.64,4.64,0,0,1,1,5.62,11.27,11.27,0,0,0-1.19,4.21c-.16,3.59-.07,7.19,0,10.78,0,1.33-.39,2-1.82,2s-2-.47-1.91-1.88c.07-2.06,0-4.13,0-6.19Zm4.27-11.61c.13-3.53-5.25-3.87-5.38-.34C525.06,478.59,530.6,478.91,530.82,475.29Z" transform="translate(-223.25 -214.56)" style="fill:none;stroke:#5f44f6;stroke-miterlimit:10"/><path d="M507.82,560.49c5.28-12.77,11.22-25.22,16.68-37.91a2.88,2.88,0,0,1,3.06-2.07c7.49,0,7.49-.06,10.54,6.8,4.9,11.2,10,22.06,14.74,33.36-3.44,0-6.53,0-9.63,0-.92-.15-1.48-1.26-1.75-2.11-.92-2-1.33-4.79-2.89-5.81s-4.29-.34-6.51-.36c-2.83,0-5.67.09-8.5-.05a2.54,2.54,0,0,0-2.86,2c-.81,2.12-1.87,4.15-2.82,6.22ZM525,544.21h10.45c-1.73-4.21-3.34-8.15-5-12.08l-.57,0Z" transform="translate(-223.25 -214.56)" style="fill:none;stroke:#5f44f6;stroke-miterlimit:10"/><path d="M565.73,520.56c.32,12.53-.06,24.94.12,37.46,0,2.07-.52,2.91-2.69,2.71a42.13,42.13,0,0,0-5.73,0c-1.4,0-1.87-.53-1.87-1.89q0-18.12-.08-36.25c0-1.46.46-2.08,2-2C560.12,520.62,562.79,520.56,565.73,520.56Z" transform="translate(-223.25 -214.56)" style="fill:none;stroke:#5f44f6;stroke-miterlimit:10"/><path d="M530.82,475.29c-.22,3.62-5.76,3.3-5.38-.34C525.57,471.42,531,471.76,530.82,475.29Z" transform="translate(-223.25 -214.56)" style="fill:none;stroke:#5f44f6;stroke-miterlimit:10"/></svg>